<svg xmlns="http://www.w3.org/2000/svg" viewBox="0 0 800 500" role="img" aria-label="Fiches de prompts ChatGPT prêts à copier">
  <defs><linearGradient id="b1" x1="0" y1="0" x2="1" y2="1">
    <stop offset="0" stop-color="#221252"/><stop offset="1" stop-color="#0b0620"/>
  </linearGradient></defs>
  <rect width="800" height="500" fill="url(#b1)"/>
  <ellipse cx="400" cy="462" rx="200" ry="14" fill="#000" opacity="0.35"/>
  <rect x="236" y="92" width="330" height="80" rx="16" fill="#2e1b63" opacity="0.55"/>
  <rect x="222" y="112" width="358" height="90" rx="16" fill="#2e1b63" opacity="0.8"/>
  <g>
    <rect x="206" y="136" width="390" height="290" rx="20" fill="#150c33" stroke="#4c1d95" stroke-width="2"/>
    <rect x="206" y="136" width="390" height="52" rx="20" fill="#7c3aed"/>
    <rect x="206" y="170" width="390" height="18" fill="#7c3aed"/>
    <text x="232" y="170" font-family="system-ui, sans-serif" font-size="21" font-weight="700" fill="#fff">30 prompts prêts à copier</text>
    
    <rect x="230" y="212" width="28" height="28" rx="8" fill="#7c3aed" opacity="0.25"/>
    <text x="244" y="232" font-family="system-ui, sans-serif" font-size="15" font-weight="700" text-anchor="middle" fill="#a78bfa">1</text>
    <rect x="272" y="216" width="230" height="9" rx="4.5" fill="#4c1d95"/>
    <rect x="272" y="232" width="170" height="7" rx="3.5" fill="#312e81"/>
    <rect x="530" y="216" width="42" height="24" rx="8" fill="#1e1145" stroke="#6d28d9" stroke-width="1.5"/>
    <text x="551" y="233" font-family="system-ui, sans-serif" font-size="11" font-weight="600" text-anchor="middle" fill="#a78bfa">copier</text>
    <rect x="230" y="264" width="28" height="28" rx="8" fill="#7c3aed" opacity="0.25"/>
    <text x="244" y="284" font-family="system-ui, sans-serif" font-size="15" font-weight="700" text-anchor="middle" fill="#a78bfa">2</text>
    <rect x="272" y="268" width="208" height="9" rx="4.5" fill="#4c1d95"/>
    <rect x="272" y="284" width="156" height="7" rx="3.5" fill="#312e81"/>
    <rect x="530" y="268" width="42" height="24" rx="8" fill="#1e1145" stroke="#6d28d9" stroke-width="1.5"/>
    <text x="551" y="285" font-family="system-ui, sans-serif" font-size="11" font-weight="600" text-anchor="middle" fill="#a78bfa">copier</text>
    <rect x="230" y="316" width="28" height="28" rx="8" fill="#7c3aed" opacity="0.25"/>
    <text x="244" y="336" font-family="system-ui, sans-serif" font-size="15" font-weight="700" text-anchor="middle" fill="#a78bfa">3</text>
    <rect x="272" y="320" width="186" height="9" rx="4.5" fill="#4c1d95"/>
    <rect x="272" y="336" width="142" height="7" rx="3.5" fill="#312e81"/>
    <rect x="530" y="320" width="42" height="24" rx="8" fill="#1e1145" stroke="#6d28d9" stroke-width="1.5"/>
    <text x="551" y="337" font-family="system-ui, sans-serif" font-size="11" font-weight="600" text-anchor="middle" fill="#a78bfa">copier</text>
    <rect x="230" y="368" width="28" height="28" rx="8" fill="#7c3aed" opacity="0.25"/>
    <text x="244" y="388" font-family="system-ui, sans-serif" font-size="15" font-weight="700" text-anchor="middle" fill="#a78bfa">4</text>
    <rect x="272" y="372" width="164" height="9" rx="4.5" fill="#4c1d95"/>
    <rect x="272" y="388" width="128" height="7" rx="3.5" fill="#312e81"/>
    <rect x="530" y="372" width="42" height="24" rx="8" fill="#1e1145" stroke="#6d28d9" stroke-width="1.5"/>
    <text x="551" y="389" font-family="system-ui, sans-serif" font-size="11" font-weight="600" text-anchor="middle" fill="#a78bfa">copier</text>
  </g>
  <g fill="#a78bfa">
    <path d="M96 120 l10 24 24 10 -24 10 -10 24 -10 -24 -24 -10 24 -10 z" opacity="0.85"/>
    <path d="M712 128 l8 19 19 8 -19 8 -8 19 -8 -19 -19 -8 19 -8 z" opacity="0.7"/>
    <path d="M714 372 l6 15 15 6 -15 6 -6 15 -6 -15 -15 -6 15 -6 z" opacity="0.6"/>
    <path d="M92 386 l6 14 14 6 -14 6 -6 14 -6 -14 -14 -6 14 -6 z" opacity="0.5"/>
  </g>
</svg>